<svg xmlns="http://www.w3.org/2000/svg" width="50.551" height="50.551" viewBox="0 0 50.551 50.551">
  <g id="Avatar" transform="translate(-1.1 -1.1)">
    <path id="Path_36" data-name="Path 36" d="M39.038,38.293a18.669,18.669,0,0,0-10.007-8.4,11.21,11.21,0,1,0-12.538,0,18.662,18.662,0,0,0-10.007,8.4c-.414.736-.151-.031.584.383s1.666,1.847,2.08,1.113a15.607,15.607,0,0,1,27.226,0,1.526,1.526,0,0,0,1.333.779c.253,0,.509-1.761.746-1.893C39.189,38.264,39.45,39.029,39.038,38.293ZM14.6,20.6a8.158,8.158,0,1,1,8.158,8.158A8.167,8.167,0,0,1,14.6,20.6Z" transform="translate(3.614 5.774)" fill="#66f5f5"/>
    <path id="Path_37" data-name="Path 37" d="M26.376,51.651A25.276,25.276,0,1,1,51.651,26.376,25.3,25.3,0,0,1,26.376,51.651Zm0-47.5A22.222,22.222,0,1,0,48.6,26.376,22.248,22.248,0,0,0,26.376,4.153Z" fill="#66f5f5"/>
  </g>
</svg>
