<svg xmlns="http://www.w3.org/2000/svg" width="24.015" height="32.748" viewBox="0 0 24.015 32.748">
  <path id="user_profile" d="M17.008,18.466A8.733,8.733,0,1,0,8.275,9.733a8.733,8.733,0,0,0,8.733,8.733Zm0-15.282a6.55,6.55,0,1,1-6.55,6.55,6.55,6.55,0,0,1,6.55-6.55Zm4.366,17.466H12.641A7.641,7.641,0,0,0,5,28.29v2.183a3.275,3.275,0,0,0,3.275,3.275H25.74a3.275,3.275,0,0,0,3.275-3.275V28.29A7.641,7.641,0,0,0,21.374,20.649Zm5.458,9.824a1.092,1.092,0,0,1-1.092,1.092H8.275a1.092,1.092,0,0,1-1.092-1.092V28.29a5.458,5.458,0,0,1,5.458-5.458h8.733a5.458,5.458,0,0,1,5.458,5.458Z" transform="translate(-5 -1)"/>
</svg>
